<svg width="19" height="19" viewBox="0 0 19 19" fill="none" xmlns="http://www.w3.org/2000/svg">
<g id="Frame">
<path id="Vector" d="M17.791 9.27734L16.5723 2.74608C16.5426 2.58688 16.4805 2.43546 16.3901 2.30111C16.2996 2.16677 16.1826 2.05236 16.0463 1.9649C15.9099 1.87745 15.7572 1.81881 15.5973 1.79259C15.4375 1.76636 15.274 1.77311 15.1169 1.81241L15.0939 1.81909L11.1959 2.96874H7.80413L3.90616 1.8228L3.88315 1.81612C3.72603 1.77682 3.56253 1.77007 3.4027 1.7963C3.24288 1.82252 3.0901 1.88116 2.95378 1.96862C2.81746 2.05607 2.70047 2.17048 2.61 2.30482C2.51953 2.43917 2.4575 2.59059 2.42772 2.7498L1.20905 9.27734C1.15694 9.53876 1.19562 9.81014 1.3187 10.0466C1.44178 10.283 1.64189 10.4704 1.88592 10.5776C2.04221 10.6493 2.212 10.6868 2.38393 10.6875C2.58972 10.6874 2.7917 10.632 2.96878 10.5272V13.6562C2.96878 14.4436 3.28155 15.1987 3.8383 15.7555C4.39505 16.3122 5.15016 16.625 5.93753 16.625H13.0625C13.8499 16.625 14.605 16.3122 15.1617 15.7555C15.7185 15.1987 16.0313 14.4436 16.0313 13.6562V10.5279C16.2082 10.6326 16.4099 10.6879 16.6154 10.6882C16.7875 10.6877 16.9575 10.6505 17.1141 10.5791C17.3585 10.4718 17.5588 10.2842 17.6819 10.0475C17.805 9.8107 17.8435 9.53898 17.791 9.27734ZM2.37503 9.49999L3.59444 2.96874L6.71682 3.88683L2.37503 9.49999ZM13.0625 15.4375H10.0938V14.4957L11.1076 13.4826C11.219 13.3712 11.2816 13.2201 11.2816 13.0625C11.2816 12.9049 11.219 12.7538 11.1076 12.6424C10.9962 12.531 10.8451 12.4684 10.6875 12.4684C10.53 12.4684 10.3789 12.531 10.2674 12.6424L9.50003 13.4106L8.7326 12.6424C8.62119 12.531 8.47009 12.4684 8.31253 12.4684C8.15497 12.4684 8.00386 12.531 7.89245 12.6424C7.78104 12.7538 7.71845 12.9049 7.71845 13.0625C7.71845 13.2201 7.78104 13.3712 7.89245 13.4826L8.90628 14.4957V15.4375H5.93753C5.46511 15.4375 5.01204 15.2498 4.67799 14.9158C4.34394 14.5817 4.15628 14.1287 4.15628 13.6562V9.13706L8.00971 4.15624H10.9896L14.8438 9.13706V13.6562C14.8438 14.1287 14.6561 14.5817 14.3221 14.9158C13.988 15.2498 13.5349 15.4375 13.0625 15.4375ZM16.625 9.49999L12.2832 3.88683L15.4056 2.96874L16.625 9.49999ZM7.71878 10.3906C7.71878 10.5668 7.66654 10.739 7.56868 10.8854C7.47082 11.0319 7.33172 11.146 7.16898 11.2134C7.00624 11.2809 6.82716 11.2985 6.6544 11.2641C6.48163 11.2298 6.32294 11.1449 6.19838 11.0204C6.07383 10.8958 5.989 10.7371 5.95464 10.5644C5.92027 10.3916 5.93791 10.2125 6.00532 10.0498C6.07273 9.88705 6.18688 9.74795 6.33335 9.65009C6.47981 9.55223 6.652 9.49999 6.82815 9.49999C7.06436 9.49999 7.29089 9.59383 7.45792 9.76085C7.62494 9.92787 7.71878 10.1544 7.71878 10.3906ZM13.0625 10.3906C13.0625 10.5668 13.0103 10.739 12.9124 10.8854C12.8146 11.0319 12.6755 11.146 12.5127 11.2134C12.35 11.2809 12.1709 11.2985 11.9981 11.2641C11.8254 11.2298 11.6667 11.1449 11.5421 11.0204C11.4176 10.8958 11.3328 10.7371 11.2984 10.5644C11.264 10.3916 11.2817 10.2125 11.3491 10.0498C11.4165 9.88705 11.5306 9.74795 11.6771 9.65009C11.8236 9.55223 11.9958 9.49999 12.1719 9.49999C12.4081 9.49999 12.6346 9.59383 12.8017 9.76085C12.9687 9.92787 13.0625 10.1544 13.0625 10.3906Z" fill="white"/>
</g>
</svg>
