<svg width="30" height="30" viewBox="0 0 30 30" fill="none" xmlns="http://www.w3.org/2000/svg">
<g id="Frame">
<path id="Vector" d="M28.091 14.6484L26.1668 4.33593C26.1198 4.08456 26.0218 3.84546 25.879 3.63334C25.7361 3.42123 25.5514 3.24057 25.3362 3.10249C25.1209 2.9644 24.8797 2.87181 24.6274 2.83041C24.375 2.789 24.1168 2.79965 23.8688 2.86171L23.8324 2.87226L17.6777 4.68749H12.3223L6.16758 2.87812L6.13125 2.86757C5.88316 2.80551 5.625 2.79486 5.37265 2.83626C5.12029 2.87767 4.87907 2.97026 4.66383 3.10835C4.44858 3.24643 4.26385 3.42709 4.12101 3.6392C3.97817 3.85132 3.88022 4.09042 3.8332 4.34179L1.90899 14.6484C1.8267 15.0612 1.88778 15.4897 2.08212 15.863C2.27646 16.2364 2.59242 16.5322 2.97774 16.7016C3.2245 16.8147 3.49259 16.8739 3.76406 16.875C4.08899 16.8748 4.40791 16.7874 4.6875 16.6219V21.5625C4.6875 22.8057 5.18136 23.998 6.06044 24.8771C6.93951 25.7561 8.1318 26.25 9.375 26.25H20.625C21.8682 26.25 23.0605 25.7561 23.9396 24.8771C24.8186 23.998 25.3125 22.8057 25.3125 21.5625V16.623C25.5918 16.7883 25.9103 16.8757 26.2348 16.8762C26.5065 16.8754 26.775 16.8167 27.0223 16.7039C27.408 16.5344 27.7243 16.2383 27.9187 15.8644C28.1131 15.4906 28.1739 15.0616 28.091 14.6484ZM3.75 15L5.67539 4.68749L10.6055 6.1371L3.75 15ZM20.625 24.375H15.9375V22.8879L17.5383 21.2883C17.7142 21.1124 17.813 20.8738 17.813 20.625C17.813 20.3762 17.7142 20.1376 17.5383 19.9617C17.3624 19.7858 17.1238 19.687 16.875 19.687C16.6262 19.687 16.3876 19.7858 16.2117 19.9617L15 21.1746L13.7883 19.9617C13.6124 19.7858 13.3738 19.687 13.125 19.687C12.8762 19.687 12.6376 19.7858 12.4617 19.9617C12.2858 20.1376 12.187 20.3762 12.187 20.625C12.187 20.8738 12.2858 21.1124 12.4617 21.2883L14.0625 22.8879V24.375H9.375C8.62908 24.375 7.91371 24.0787 7.38626 23.5512C6.85882 23.0238 6.5625 22.3084 6.5625 21.5625V14.4269L12.6469 6.56249H17.352L23.4375 14.4269V21.5625C23.4375 22.3084 23.1412 23.0238 22.6137 23.5512C22.0863 24.0787 21.3709 24.375 20.625 24.375ZM26.25 15L19.3945 6.1371L24.3246 4.68749L26.25 15ZM12.1875 16.4062C12.1875 16.6844 12.105 16.9563 11.9505 17.1875C11.796 17.4188 11.5764 17.599 11.3194 17.7054C11.0624 17.8119 10.7797 17.8397 10.5069 17.7855C10.2341 17.7312 9.98355 17.5973 9.78688 17.4006C9.59021 17.2039 9.45628 16.9534 9.40202 16.6806C9.34776 16.4078 9.37561 16.1251 9.48205 15.8681C9.58848 15.6111 9.76872 15.3915 9.99998 15.237C10.2312 15.0825 10.5031 15 10.7813 15C11.1542 15 11.5119 15.1482 11.7756 15.4119C12.0393 15.6756 12.1875 16.0333 12.1875 16.4062ZM20.625 16.4062C20.625 16.6844 20.5425 16.9563 20.388 17.1875C20.2335 17.4188 20.0139 17.599 19.7569 17.7054C19.4999 17.8119 19.2172 17.8397 18.9444 17.7855C18.6716 17.7312 18.4211 17.5973 18.2244 17.4006C18.0277 17.2039 17.8938 16.9534 17.8395 16.6806C17.7853 16.4078 17.8131 16.1251 17.9195 15.8681C18.026 15.6111 18.2062 15.3915 18.4375 15.237C18.6687 15.0825 18.9406 15 19.2188 15C19.5917 15 19.9494 15.1482 20.2131 15.4119C20.4768 15.6756 20.625 16.0333 20.625 16.4062Z" fill="#BCBCBC"/>
</g>
</svg>
