<svg width="13" height="17" viewBox="0 0 13 17" fill="none" xmlns="http://www.w3.org/2000/svg">
<path id="Vector" d="M6.5 3.64289C5.91565 3.64289 5.34441 3.82094 4.85854 4.15451C4.37267 4.48808 3.99398 4.9622 3.77036 5.51691C3.54673 6.07162 3.48822 6.68201 3.60222 7.27088C3.71623 7.85976 3.99762 8.40068 4.41082 8.82523C4.82402 9.24979 5.35047 9.53892 5.9236 9.65605C6.49672 9.77319 7.09078 9.71307 7.63066 9.4833C8.17053 9.25353 8.63196 8.86443 8.95661 8.36521C9.28126 7.86598 9.45455 7.27905 9.45455 6.67864C9.45455 5.87351 9.14326 5.10136 8.58918 4.53204C8.03509 3.96273 7.28359 3.64289 6.5 3.64289ZM6.5 8.50008C6.14939 8.50008 5.80665 8.39326 5.51513 8.19312C5.2236 7.99297 4.99639 7.7085 4.86221 7.37568C4.72804 7.04285 4.69293 6.67662 4.76133 6.32329C4.82974 5.96997 4.99857 5.64541 5.24649 5.39068C5.49441 5.13595 5.81028 4.96247 6.15416 4.89219C6.49803 4.82191 6.85447 4.85798 7.17839 4.99584C7.50232 5.1337 7.77918 5.36716 7.97397 5.6667C8.16876 5.96623 8.27273 6.31839 8.27273 6.67864C8.27273 7.16172 8.08596 7.62501 7.75351 7.9666C7.42106 8.30818 6.97016 8.50008 6.5 8.50008ZM6.5 0C4.77669 0.0020087 3.12453 0.706294 1.90596 1.95835C0.687402 3.2104 0.00195497 4.90797 0 6.67864C0 9.0617 1.07176 11.5874 3.10227 13.9834C4.01465 15.0661 5.04153 16.041 6.16392 16.8901C6.26328 16.9616 6.38164 17 6.50295 17C6.62426 17 6.74263 16.9616 6.84199 16.8901C7.96231 16.0406 8.9872 15.0657 9.89773 13.9834C11.9253 11.5874 13 9.0617 13 6.67864C12.998 4.90797 12.3126 3.2104 11.094 1.95835C9.87547 0.706294 8.22331 0.0020087 6.5 0ZM6.5 15.6341C5.27903 14.6475 1.18182 11.0235 1.18182 6.67864C1.18182 5.22941 1.74212 3.83953 2.73948 2.81477C3.73683 1.79 5.08953 1.2143 6.5 1.2143C7.91047 1.2143 9.26317 1.79 10.2605 2.81477C11.2579 3.83953 11.8182 5.22941 11.8182 6.67864C11.8182 11.022 7.72097 14.6475 6.5 15.6341Z" fill="white"/>
</svg>
