<svg width="34" height="34" viewBox="0 0 34 34" fill="none" xmlns="http://www.w3.org/2000/svg">
<g id="Frame">
<g id="Group">
<path id="Vector" d="M29.353 17C29.3571 19.4524 28.6276 21.85 27.2585 23.8847C26.1294 25.5687 24.6027 26.9486 22.8135 27.9024C21.0242 28.8561 19.0276 29.3543 17 29.3529C14.9725 29.3543 12.9758 28.8561 11.1866 27.9024C9.39739 26.9486 7.87073 25.5687 6.74161 23.8847C5.66653 22.2821 4.98186 20.45 4.7425 18.5351C4.50313 16.6202 4.71572 14.6759 5.36322 12.858C6.01072 11.0401 7.07513 9.3992 8.47111 8.06682C9.86709 6.73443 11.5558 5.74764 13.4019 5.18554C15.248 4.62344 17.2001 4.50168 19.1017 4.83001C21.0034 5.15833 22.8016 5.92762 24.3524 7.0762C25.9031 8.22478 27.1632 9.7207 28.0316 11.444C28.9 13.1674 29.3525 15.0702 29.353 17Z" stroke="#BCBCBC" stroke-width="2.5"/>
<path id="Vector_2" d="M18.7157 12.8823C18.7157 13.8294 17.9471 14.598 17 14.598V16.6568C18.0011 16.6568 18.9612 16.2591 19.669 15.5513C20.3769 14.8434 20.7746 13.8834 20.7746 12.8823H18.7157ZM17 14.598C16.053 14.598 15.2844 13.8294 15.2844 12.8823H13.2255C13.2255 13.8834 13.6232 14.8434 14.3311 15.5513C15.0389 16.2591 15.999 16.6568 17 16.6568V14.598ZM15.2844 12.8823C15.2844 11.9352 16.053 11.1666 17 11.1666V9.10779C15.999 9.10779 15.0389 9.50546 14.3311 10.2133C13.6232 10.9212 13.2255 11.8812 13.2255 12.8823H15.2844ZM17 11.1666C17.9471 11.1666 18.7157 11.9352 18.7157 12.8823H20.7746C20.7746 11.8812 20.3769 10.9212 19.669 10.2133C18.9612 9.50546 18.0011 9.10779 17 9.10779V11.1666ZM7.62005 25.0376L6.63318 24.7439L6.4726 25.2819L6.83907 25.7074L7.62005 25.0376ZM26.38 25.0376L27.1624 25.7088L27.5275 25.2833L27.3669 24.7439L26.38 25.0376ZM12.8824 22.147H21.1177V20.0882H12.8824V22.147ZM12.8824 20.0882C11.4784 20.0882 10.1119 20.5413 8.98605 21.3801C7.86017 22.2189 7.035 23.3986 6.63318 24.7439L8.60691 25.3313C8.88215 24.4112 9.44682 23.6044 10.2171 23.0308C10.9873 22.4571 11.922 22.1472 12.8824 22.147V20.0882ZM17 28.3235C15.3659 28.3253 13.7508 27.9727 12.2662 27.2897C10.7817 26.6068 9.46292 25.6099 8.40103 24.3678L6.83907 25.7074C8.09421 27.1746 9.65258 28.3536 11.4068 29.1604C13.1609 29.9673 15.0692 30.3841 17 30.3823V28.3235ZM21.1177 22.147C23.1353 22.147 24.8442 23.4894 25.3932 25.3313L27.3669 24.7439C26.9651 23.3986 26.1399 22.2189 25.014 21.3801C23.8882 20.5413 22.5217 20.0882 21.1177 20.0882V22.147ZM25.5991 24.3678C24.5372 25.6099 23.2184 26.6068 21.7339 27.2897C20.2493 27.9727 18.6342 28.3253 17 28.3235V30.3823C18.9309 30.3841 20.8392 29.9673 22.5933 29.1604C24.3475 28.3536 25.9073 27.176 27.1624 25.7088L25.5991 24.3678Z" fill="#BCBCBC"/>
</g>
</g>
</svg>
