<svg width="30" height="30" viewBox="0 0 30 30" fill="none" xmlns="http://www.w3.org/2000/svg">
<g id="Frame">
<g id="Group">
<path id="Vector" d="M27.5 27.5H2.5M25 27.5V13.75M5 27.5V13.75" stroke="#BCBCBC" stroke-width="2.5" stroke-linecap="round"/>
<path id="Vector_2" d="M20.66 2.5H9.33996C7.83621 2.5 7.08496 2.5 6.48121 2.87375C5.87621 3.24625 5.53996 3.91875 4.86871 5.26375L3.11246 9.7C2.70746 10.725 2.35246 11.9325 3.03496 12.7987C3.35649 13.2075 3.79749 13.5059 4.29655 13.6522C4.79561 13.7985 5.32789 13.7856 5.81924 13.6151C6.31059 13.4447 6.73656 13.1253 7.03782 12.7013C7.33908 12.2774 7.50063 11.7701 7.49996 11.25C7.49996 11.913 7.76336 12.5489 8.2322 13.0178C8.70104 13.4866 9.33692 13.75 9.99996 13.75C10.663 13.75 11.2989 13.4866 11.7677 13.0178C12.2366 12.5489 12.5 11.913 12.5 11.25C12.5 11.913 12.7634 12.5489 13.2322 13.0178C13.701 13.4866 14.3369 13.75 15 13.75C15.663 13.75 16.2989 13.4866 16.7677 13.0178C17.2366 12.5489 17.5 11.913 17.5 11.25C17.5 11.913 17.7634 12.5489 18.2322 13.0178C18.701 13.4866 19.3369 13.75 20 13.75C20.663 13.75 21.2989 13.4866 21.7677 13.0178C22.2366 12.5489 22.5 11.913 22.5 11.25C22.4999 11.7697 22.6618 12.2764 22.963 12.6998C23.2643 13.1232 23.6901 13.4422 24.1811 13.6124C24.6721 13.7826 25.2039 13.7956 25.7026 13.6496C26.2013 13.5035 26.6421 13.2057 26.9637 12.7975C27.6462 11.9312 27.2912 10.7237 26.8862 9.69875L25.1312 5.26375C24.46 3.91875 24.1237 3.24625 23.5187 2.87375C22.915 2.5 22.1637 2.5 20.66 2.5Z" stroke="#BCBCBC" stroke-width="2.5" stroke-linejoin="round"/>
<path id="Vector_3" d="M11.875 26.875V23.125C11.875 21.9563 11.875 21.3725 12.1263 20.9375C12.2908 20.6525 12.5275 20.4158 12.8125 20.2513C13.2475 20 13.8313 20 15 20C16.1688 20 16.7525 20 17.1875 20.2513C17.4725 20.4158 17.7092 20.6525 17.8738 20.9375C18.125 21.3725 18.125 21.9563 18.125 23.125V26.875" stroke="#BCBCBC" stroke-width="2.5" stroke-linecap="round"/>
</g>
</g>
</svg>
