<svg width="177" height="119" viewBox="0 0 177 119" fill="none" xmlns="http://www.w3.org/2000/svg">
<g id="undraw_dog_c7i6 1" clip-path="url(#clip0_17_3192)">
<path id="Vector" d="M110.644 118.79C112.007 125.291 119.774 117.3 119.774 117.3L129.039 116.216C129.039 116.216 134.899 116.352 138.714 119.332C142.529 122.311 145.118 118.383 145.118 118.383C149.417 119.808 154.683 119.802 159.244 119.346C165.816 118.689 171.084 113.646 171.987 107.143C177.082 70.4544 149.07 52.4245 149.07 52.4245L140.894 30.4833C140.894 30.4833 143.483 24.1177 144.301 18.4292C145.118 12.7407 139.123 7.32317 131.765 1.90559C128.545 -0.4646 124.857 -0.294241 121.726 0.647353C118.213 1.70363 115.149 3.87577 112.885 6.7465C111.009 9.12481 107.792 12.4931 104.256 13.0766C103.033 13.2771 101.825 13.7593 100.697 14.6369C99.5306 15.5443 99.0156 17.0586 98.9992 18.9412C98.912 27.165 105.744 37.0657 111.734 38.6097C119.092 40.5058 115.141 58.5193 115.141 58.5193C103.15 75.3138 111.598 94.0044 111.598 94.0044L109.418 109.174C109.418 109.174 109.282 112.289 110.644 118.79Z" fill="#224F56"/>
<path id="Vector_2" d="M150.705 83.8465L147.707 120.957C147.707 120.957 151.795 131.25 137.896 130.709C123.998 130.167 132.173 109.038 132.173 109.038L136.534 81.4086" fill="#163236"/>
<path id="Vector_3" d="M125.905 91.431C125.905 91.431 126.723 125.833 109.554 125.02C92.3852 124.207 107.919 113.372 107.919 113.372L109.418 109.174" fill="#163236"/>
<path id="Vector_4" d="M98.9993 18.9412C100.956 19.1741 104.019 19.1633 106.556 17.4812C109.273 15.6798 106.453 14.0003 104.256 13.0767C103.033 13.2771 101.825 13.7593 100.697 14.6369C99.5307 15.5444 99.0156 17.0586 98.9993 18.9412Z" fill="#2F2E41"/>
<path id="Vector_5" d="M130.62 14.0705C130.62 14.0705 125.864 1.9307 132.675 1.76082C139.486 1.59095 144.866 12.1111 144.866 12.1111C144.866 12.1111 161.961 43.084 138.539 41.4138C115.118 39.7435 126.31 27.3794 126.31 27.3794C126.31 27.3794 131.652 20.8514 130.62 14.0705Z" fill="#163236"/>
<path id="Vector_6" d="M156.711 104.79C159.727 106.123 162.879 107.484 166.177 107.354C169.476 107.224 172.947 105.113 173.461 101.871C173.726 100.198 173.2 98.4029 173.845 96.8349C174.712 94.7251 177.509 93.9115 179.684 94.6345C181.858 95.3575 183.456 97.2219 184.601 99.1962C186.744 102.89 187.603 107.738 185.305 111.339C183.313 114.461 179.535 115.871 176.021 117.081C171.341 118.693 166.115 120.292 161.579 118.313C157.018 116.322 154.533 110.57 156.222 105.911" fill="#163236"/>
<path id="Vector_7" d="M146.648 46.299C146.648 46.299 152.644 49.2786 149.646 52.5292C146.648 55.7797 128.117 64.9896 121.304 63.6352C114.491 62.2808 112.855 58.2176 112.855 57.1341C112.855 56.0506 113.369 42.9437 115.55 43.4855C117.73 44.0272 131.387 56.3215 146.648 46.299Z" fill="#D7D7D7"/>
<rect id="Rectangle 2" x="117.857" y="50.4448" width="0.785714" height="0.782089" fill="black"/>
<rect id="Rectangle 4" x="117.857" y="51.6179" width="0.785714" height="0.782089" fill="black"/>
<rect id="Rectangle 5" x="119.036" y="52.4" width="0.785714" height="0.782089" fill="black"/>
<rect id="Rectangle 12" x="119.036" y="54.7462" width="0.785714" height="0.391045" fill="black"/>
<rect id="Rectangle 18" x="118.643" y="53.1821" width="0.785714" height="0.391045" fill="black"/>
<rect id="Rectangle 19" x="119.821" y="52.4" width="0.785714" height="0.391045" fill="black"/>
<rect id="Rectangle 25" x="121" y="51.6179" width="0.785714" height="0.391045" fill="black"/>
<rect id="Rectangle 20" x="118.643" y="51.6179" width="0.785714" height="0.391045" fill="black"/>
<rect id="Rectangle 16" x="121" y="55.1373" width="0.785714" height="0.391045" fill="black"/>
<rect id="Rectangle 14" x="119.429" y="55.5283" width="0.785714" height="0.391045" fill="black"/>
<rect id="Rectangle 11" x="117.857" y="54.3552" width="0.785714" height="0.782089" fill="black"/>
<rect id="Rectangle 8" x="120.214" y="52.4" width="0.785714" height="0.782089" fill="black"/>
<rect id="Rectangle 15" x="121" y="53.5731" width="0.785714" height="0.782089" fill="black"/>
<rect id="Rectangle 29" x="122.179" y="53.5731" width="0.785714" height="0.782089" fill="black"/>
<rect id="Rectangle 17" x="121.393" y="54.3552" width="0.785714" height="0.782089" fill="black"/>
<rect id="Rectangle 13" x="120.214" y="54.7462" width="0.785714" height="1.56418" fill="black"/>
<rect id="Rectangle 28" x="121.786" y="54.7462" width="0.785714" height="1.56418" fill="black"/>
<rect id="Rectangle 21" x="120.214" y="51.6179" width="0.392857" height="1.56418" fill="black"/>
<rect id="Rectangle 26" x="121.393" y="52.4" width="0.392857" height="1.56418" fill="black"/>
<rect id="Rectangle 22" x="119.036" y="51.6179" width="0.392857" height="1.56418" fill="black"/>
<rect id="Rectangle 23" x="118.25" y="50.8358" width="0.392857" height="1.56418" fill="black"/>
<rect id="Rectangle 7" x="119.036" y="53.5731" width="1.57143" height="0.782089" fill="black"/>
<rect id="Rectangle 27" x="121.786" y="52.791" width="0.785714" height="0.782089" fill="black"/>
<rect id="Rectangle 10" x="117.857" y="55.5283" width="1.57143" height="0.782089" fill="black"/>
<rect id="Rectangle 3" x="119.036" y="50.8358" width="0.785714" height="1.17313" fill="black"/>
<rect id="Rectangle 9" x="120.214" y="50.8358" width="0.785714" height="1.17313" fill="black"/>
<rect id="Rectangle 6" x="117.857" y="52.791" width="0.785714" height="1.17313" fill="black"/>
<rect id="Rectangle 24" x="121.786" y="51.2268" width="0.785714" height="1.17313" fill="black"/>
</g>
<defs>
<clipPath id="clip0_17_3192">
<rect width="242" height="131" fill="white"/>
</clipPath>
</defs>
</svg>
