<svg width="124" height="121" viewBox="0 0 124 121" fill="none" xmlns="http://www.w3.org/2000/svg">
<g id="Group 41">
<path id="Ellipse 97" d="M42.4674 42.5081C31.0515 42.5081 21.7971 34.5953 21.7971 24.8343C21.7971 15.0733 31.0515 7.16052 42.4674 7.16052C53.8832 7.16052 63.1376 15.0733 63.1376 24.8343C63.1376 34.5953 53.8832 42.5081 42.4674 42.5081Z" fill="#163236"/>
<path id="Path 634" d="M105.091 159.824C105.487 159.824 105.879 159.763 106.249 159.644L112.91 157.509C113.657 157.267 114.278 156.804 114.66 156.203C115.041 155.603 115.157 154.905 114.987 154.237C113.311 147.792 107.598 125.851 104.469 114.083C100.759 100.123 46.6343 97.5293 44.3322 97.4258L44.1427 97.4172L38.0541 103.957C35.8541 110.003 36.5515 114.719 40.1268 117.975C50.5601 127.473 81.7094 121.579 85.4237 120.833L101.979 157.995C102.221 158.533 102.647 158.996 103.202 159.322C103.758 159.649 104.416 159.824 105.09 159.824H105.091Z" fill="#12282C"/>
<path id="Path 635" d="M95.4945 164.243C95.89 164.242 96.2822 164.181 96.6524 164.062L103.311 161.928C104.058 161.686 104.68 161.222 105.061 160.622C105.442 160.021 105.558 159.323 105.388 158.655C103.712 152.211 97.9987 130.269 94.8703 118.501C91.1602 104.541 37.0353 101.947 34.7331 101.844L34.5436 101.835L28.4573 108.377C26.2572 114.423 26.9546 119.139 30.5299 122.395C40.9627 131.89 72.1126 125.999 75.8268 125.253L92.3844 162.413C92.6257 162.951 93.0522 163.414 93.6075 163.741C94.1629 164.067 94.821 164.242 95.495 164.242L95.4945 164.243Z" fill="#163236"/>
<path id="Path 636" d="M114.758 73.3336C114.514 73.6134 114.295 73.9092 114.105 74.2183L77.6952 77.4981L72.4531 71.3534L60.5745 76.9045L70.8688 91.8147L115.523 82.0797C116.649 83.0189 118.084 83.6425 119.635 83.8677C121.186 84.0929 122.781 83.909 124.207 83.3403C125.633 82.7717 126.822 81.8454 127.618 80.6845C128.413 79.5237 128.776 78.1833 128.659 76.8417C128.541 75.5001 127.949 74.2208 126.961 73.1741C125.972 72.1273 124.634 71.3626 123.125 70.9817C121.616 70.6009 120.007 70.6218 118.513 71.0419C117.018 71.4619 115.708 72.261 114.757 73.3331L114.758 73.3336Z" fill="#FEB8B8"/>
<path id="Path 637" d="M30.1473 110.88C30.6737 110.879 31.1924 110.771 31.6605 110.565C38.9411 107.4 53.1181 101.918 66.2646 100.771C66.7145 100.733 67.1502 100.616 67.5438 100.425C67.9374 100.235 68.28 99.9767 68.5499 99.6666C68.825 99.3532 69.0216 98.9947 69.1274 98.6134C69.2333 98.2322 69.2461 97.8364 69.1652 97.4507C67.9788 91.8358 65.2578 77.5376 65.6083 66.0786C65.7115 62.5553 64.4096 59.1067 61.9166 56.2999C59.4236 53.4931 55.8879 51.4951 51.8907 50.6343C49.485 50.0915 47.0415 49.6795 44.5749 49.4008C41.739 49.0937 38.8584 49.3587 36.1638 50.1747C33.4693 50.9907 31.0357 52.3349 29.058 54.0997C27.0804 55.8645 25.6135 58.0008 24.7751 60.3374C23.9367 62.6741 23.7499 65.1462 24.2298 67.5556C26.5741 79.4309 28.9378 96.0169 26.8836 107.595C26.7892 108.114 26.8647 108.645 27.1017 109.13C27.3387 109.614 27.7279 110.033 28.2262 110.34C28.7837 110.689 29.4563 110.878 30.1473 110.88Z" fill="#D7D7D7"/>
<path id="Path 638" d="M64.934 80.6756C65.3878 80.675 65.8367 80.5949 66.253 80.4403L75.7378 76.9301C76.5457 76.6301 77.1815 76.0684 77.5056 75.3682C77.8297 74.6679 77.8158 73.8863 77.4668 73.1949L70.1351 58.7136C69.6996 57.8361 69.0662 57.0405 68.2711 56.3723C67.476 55.7041 66.5348 55.1763 65.5011 54.8191C64.4675 54.4619 63.3617 54.2823 62.2468 54.2906C61.132 54.2988 60.03 54.4947 59.0037 54.867C57.9774 55.2394 57.047 55.781 56.2655 56.4608C55.484 57.1407 54.8667 57.9455 54.449 58.8293C54.0312 59.7131 53.8212 60.6586 53.8308 61.6118C53.8404 62.565 54.0695 63.5073 54.505 64.3848C54.5209 64.4167 54.537 64.4485 54.5533 64.4802L61.885 78.962C62.1431 79.4703 62.5691 79.9032 63.1106 80.2076C63.6522 80.5119 64.2859 80.6746 64.934 80.6756Z" fill="#D7D7D7"/>
<path id="Ellipse 98" d="M43.2227 44.4748C33.2088 44.4748 25.0909 37.5337 25.0909 28.9715C25.0909 20.4092 33.2088 13.4681 43.2227 13.4681C53.2367 13.4681 61.3546 20.4092 61.3546 28.9715C61.3546 37.5337 53.2367 44.4748 43.2227 44.4748Z" fill="#FEB8B8"/>
<path id="Path 639" d="M61.6808 21.3527C53.0924 25.8355 43.41 28.5633 33.3872 29.324L36.3699 26.2688C34.1984 26.9552 31.9134 27.3432 29.5998 27.4181C28.4414 27.4468 27.2913 27.243 26.2417 26.8229C25.1921 26.4028 24.2723 25.7782 23.5561 24.9992C22.9713 24.1907 22.624 23.2732 22.5436 22.325C22.4633 21.3769 22.6522 20.4262 23.0945 19.5539C24.0032 17.8136 25.4178 16.3011 27.2035 15.1604C30.3688 13.0194 34.1043 11.5813 38.0773 10.9742C42.0502 10.3671 46.1372 10.6098 49.9738 11.6808C52.6056 12.3532 54.9627 13.646 56.7749 15.411C58.4939 17.2242 61.8029 18.8398 60.9229 21.0489L61.6808 21.3527Z" fill="#163236"/>
<path id="Path 640" d="M41.6016 8.29261C37.9875 5.15817 33.6138 2.73922 28.7883 1.20608C25.7255 0.104401 22.3662 -0.25209 19.0813 0.175979C15.8429 0.733108 12.7807 2.64841 11.877 5.36521C11.1402 7.58652 11.9012 9.9784 13.0476 12.0706C14.1939 14.1627 15.7244 16.101 16.6518 18.2701C17.5979 20.4834 17.8824 22.8637 17.4796 25.1949C17.0769 27.5261 15.9995 29.7344 14.3453 31.6193C12.6912 33.5042 10.5126 35.0059 8.00747 35.9883C5.5023 36.9706 2.74986 37.4024 1.14441e-05 37.2445C3.18163 37.6094 6.11431 38.8879 9.22435 39.5679C12.3344 40.2479 16.005 40.2025 18.316 38.2971C20.7613 36.2814 20.8103 33.0043 20.6919 30.1021L20.1655 17.1585C20.0761 14.9584 19.9992 12.6875 20.9277 10.6332C21.8561 8.57882 24.0614 6.78098 26.6362 6.79988C28.5878 6.81384 30.3146 7.82504 31.8799 8.82184C33.4452 9.81864 35.1015 10.8821 37.0453 11.0306C38.989 11.1791 41.2085 9.9505 41.0632 8.28541" fill="#163236"/>
<path id="Path 641" d="M73.7068 106.898C74.9082 106.897 76.0942 106.668 77.1796 106.227C78.265 105.787 79.2226 105.146 79.9835 104.351C80.7444 103.556 81.2896 102.627 81.5799 101.63C81.8701 100.633 81.8982 99.5939 81.6621 98.5867C81.426 97.5795 80.9316 96.6296 80.2145 95.8055C79.4973 94.9814 78.5754 94.3035 77.5149 93.8207C76.4545 93.3379 75.2821 93.0622 74.0821 93.0135C72.882 92.9648 71.6843 93.1442 70.5752 93.539C70.2415 93.6594 69.9181 93.7996 69.6072 93.9584L36.5779 81.2808L35.65 73.6213L21.4124 73.2955L21.5066 86.047C21.5239 87.5243 22.0979 88.9575 23.1434 90.1337C24.1889 91.31 25.6503 92.1666 27.3104 92.5764L65.9346 101.975C66.0091 102.193 66.0969 102.408 66.1977 102.618C66.8175 103.884 67.8602 104.965 69.1953 105.726C70.5303 106.487 72.0984 106.895 73.7031 106.897L73.7068 106.898Z" fill="#FEB8B8"/>
<path id="Path 642" d="M22.6182 79.5435C23.0231 79.7187 23.4657 79.821 23.9187 79.8441L34.2346 80.3864C35.1137 80.4318 35.9779 80.1771 36.6377 79.6784C37.2975 79.1796 37.699 78.4774 37.7542 77.7259L38.8863 61.975C39.0219 60.0547 38.2605 58.1669 36.7693 56.7263C35.278 55.2857 33.179 54.4102 30.9332 54.292C28.6875 54.1739 26.4787 54.8228 24.7922 56.0963C23.1057 57.3697 22.0793 59.1635 21.9387 61.0836L20.806 76.8344C20.7667 77.3877 20.9171 77.9387 21.2389 78.42C21.5606 78.9012 22.0396 79.2917 22.6171 79.5435H22.6182Z" fill="#D7D7D7"/>
<path id="Rectangle 91" d="M43.3906 104.072H105.007C105.524 104.072 105.943 104.43 105.943 104.872V107.69C105.943 108.132 105.524 108.49 105.007 108.49H43.3906C42.8738 108.49 42.4548 108.132 42.4548 107.69V104.872C42.4548 104.43 42.8738 104.072 43.3906 104.072Z" fill="#285F67"/>
<path id="Path 643" d="M129.618 104.388V73.458C129.617 72.3702 129.111 71.3274 128.211 70.5583C127.311 69.7891 126.092 69.3564 124.82 69.3551H59.1171C57.8449 69.3563 56.6252 69.7889 55.7256 70.5581C54.8261 71.3273 54.3201 72.3702 54.3187 73.458V104.388C54.3201 105.475 54.8261 106.518 55.7256 107.288C56.6252 108.057 57.8449 108.489 59.1171 108.491H124.82C126.092 108.489 127.311 108.057 128.211 107.287C129.111 106.518 129.617 105.475 129.618 104.388Z" fill="#285F67"/>
<path id="Ellipse 99" d="M91.1781 92.7116C88.7317 92.7116 86.7485 91.016 86.7485 88.9242C86.7485 86.8325 88.7317 85.1368 91.1781 85.1368C93.6244 85.1368 95.6076 86.8325 95.6076 88.9242C95.6076 91.016 93.6244 92.7116 91.1781 92.7116Z" fill="white"/>
</g>
</svg>
